<svg width="128" height="84" viewBox="0 0 128 84" fill="none" xmlns="http://www.w3.org/2000/svg">
<path d="M64 0.692505C60.6566 0.692505 58.3954 2.29967 56.6671 5.03897C55.9516 6.17301 55.3742 7.51196 54.94 8.96993C57.8514 8.53322 60.8734 8.30277 64 8.30277C67.1267 8.30277 70.1484 8.53322 73.06 8.96993C72.6259 7.51196 72.0485 6.17301 71.333 5.03897C69.6047 2.29967 67.3435 0.692505 64 0.692505ZM64 13.1933C33.2847 13.1933 14.1692 36.575 12.9377 60.48H115.062C113.831 36.575 94.7151 13.1933 64 13.1933ZM3.91117 61.7396L0.638184 65.198C5.29845 70.1225 10.5047 70.2621 14.6197 70.2621H113.38C117.495 70.2621 122.701 70.1225 127.362 65.198L124.089 61.7396C120.519 65.5113 117.495 65.3716 113.38 65.3716H14.6197C10.5047 65.3716 7.4807 65.5113 3.91117 61.7396ZM27.1742 75.1538L32.3185 83.3075H95.6816L100.826 75.1538H27.1742Z" fill="white"/>
</svg>
