<svg width="296" height="345" viewBox="0 0 296 345" fill="none" xmlns="http://www.w3.org/2000/svg">
<path d="M295.5 299.196C295.5 288.078 286.555 265.854 275.521 265.854C264.487 265.854 255.542 288.078 255.542 299.196C255.542 308.935 262.406 317.059 271.525 318.924V331.358C271.525 333.573 273.314 335.368 275.521 335.368C277.728 335.368 279.517 333.573 279.517 331.358V318.924C288.636 317.059 295.5 308.935 295.5 299.196Z" fill="#2F394A"/>
<path d="M36.4619 265.854C38.6687 265.854 40.4577 267.35 40.4577 269.196V302.617C40.4577 310.701 33.5938 317.444 24.4746 318.992V331.358C24.4746 333.573 22.6857 335.368 20.4788 335.368C18.272 335.368 16.4831 333.573 16.4831 331.358V318.992C7.36383 317.444 0.5 310.701 0.5 302.617V269.196C0.5 267.35 2.28896 265.854 4.49577 265.854C6.70258 265.854 8.49154 267.35 8.49154 269.196V297.047C8.49154 298.892 10.2805 300.389 12.4873 300.389C14.6941 300.389 16.4831 298.892 16.4831 297.047V269.196C16.4831 267.35 18.272 265.854 20.4788 265.854C22.6857 265.854 24.4746 267.35 24.4746 269.196V297.047C24.4746 298.892 26.2636 300.389 28.4704 300.389C30.6772 300.389 32.4661 298.892 32.4661 297.047V269.196C32.4661 267.35 34.2551 265.854 36.4619 265.854Z" fill="#2F394A"/>
<path fill-rule="evenodd" clip-rule="evenodd" d="M148.156 0C157.675 0 167.101 1.87368 175.895 5.51405C184.69 9.15442 192.68 14.4902 199.411 21.2167C205.378 27.1792 209.984 34.2044 213.447 41.6691C221.951 42.0666 231.197 43.8755 238.985 47.0991C247.779 50.7395 255.77 56.0753 262.501 62.8018C269.232 69.5283 274.571 77.5139 278.214 86.3025C281.856 95.0912 283.731 104.511 283.731 114.024C283.731 123.536 281.856 132.956 278.214 141.745C274.571 150.533 269.232 158.519 262.501 165.245C255.77 171.972 247.779 177.308 238.985 180.948C232.174 183.767 227.269 185.656 220.33 186.257L216.29 230.976H80.0225L75.9826 186.257C69.0431 185.656 64.1386 183.767 57.3276 180.948C48.5332 177.308 40.5424 171.972 33.8115 165.245C27.0806 158.519 21.7414 150.533 18.0986 141.745C14.4559 132.956 12.581 123.536 12.581 114.024C12.581 104.511 14.4559 95.0912 18.0986 86.3025C21.7414 77.5139 27.0806 69.5283 33.8115 62.8018C40.5425 56.0753 48.5332 50.7395 57.3276 47.0991C65.1152 43.8755 74.3609 42.0666 82.8651 41.6691C86.3284 34.2044 90.9346 27.1792 96.9009 21.2167C103.632 14.4902 111.623 9.15442 120.417 5.51405C129.211 1.87368 138.637 0 148.156 0ZM206.201 220.244L210.228 175.73H215.272C223.021 175.73 226.938 174.319 234.875 171.033C242.367 167.932 249.174 163.387 254.907 157.657C260.641 151.927 265.189 145.124 268.292 137.638C271.395 130.151 272.993 122.127 272.993 114.024C272.993 105.92 271.395 97.896 268.292 90.4093C265.189 82.9227 260.641 76.1202 254.907 70.3902C249.174 64.6602 242.367 60.1149 234.875 57.0138C229.738 54.8873 223.658 53.4498 217.673 52.7694C219.563 59.0918 220.642 65.669 220.642 72.4385C220.642 75.4019 218.238 77.8043 215.272 77.8043C212.307 77.8043 209.903 75.4019 209.903 72.4385C209.903 64.4516 208.094 56.608 204.943 49.0043C201.787 41.3906 197.463 34.4463 191.818 28.8051C186.084 23.0751 179.277 18.5298 171.786 15.4288C164.294 12.3277 156.265 10.7316 148.156 10.7316C140.047 10.7316 132.018 12.3277 124.526 15.4288C117.035 18.5298 110.228 23.0751 104.494 28.8051C98.8494 34.4463 94.5253 41.3906 91.3696 49.0043C88.218 56.608 86.409 64.4516 86.409 72.4385C86.409 75.4019 84.0051 77.8043 81.0397 77.8043C78.0743 77.8043 75.6704 75.4019 75.6704 72.4385C75.6704 65.669 76.7497 59.0918 78.6395 52.7694C72.654 53.4498 66.5743 54.8873 61.4371 57.0138C53.9456 60.1149 47.1386 64.6602 41.4049 70.3902C35.6711 76.1202 31.1229 82.9227 28.0198 90.4093C24.9167 97.896 23.3196 105.92 23.3196 114.024C23.3196 122.127 24.9167 130.151 28.0198 137.638C31.1229 145.124 35.6711 151.927 41.4049 157.657C47.1386 163.387 53.9456 167.932 61.4371 171.033C69.3742 174.319 73.291 175.73 81.0397 175.73H86.0839L90.1109 220.244H206.201Z" fill="#2F394A"/>
<path d="M210.228 175.73H215.272C223.021 175.73 226.938 174.319 234.875 171.033C242.367 167.932 249.174 163.387 254.907 157.657C260.641 151.927 265.189 145.124 268.292 137.638C271.395 130.151 272.993 122.127 272.993 114.024C272.993 105.92 271.395 97.896 268.292 90.4093C265.189 82.9227 260.641 76.1202 254.907 70.3902C249.174 64.6602 242.367 60.1149 234.875 57.0138C229.738 54.8873 223.658 53.4498 217.673 52.7694C219.563 59.0918 220.642 65.669 220.642 72.4385C220.642 75.4019 218.238 77.8043 215.272 77.8043C212.307 77.8043 209.903 75.4019 209.903 72.4385C209.903 64.4516 208.094 56.608 204.943 49.0043C201.787 41.3906 197.463 34.4463 191.818 28.8051C186.084 23.0751 179.277 18.5298 171.786 15.4288C164.294 12.3277 156.265 10.7316 148.156 10.7316C140.047 10.7316 132.018 12.3277 124.526 15.4288C117.035 18.5298 110.228 23.0751 104.494 28.8051C98.8494 34.4463 94.5253 41.3906 91.3696 49.0043C88.218 56.608 86.409 64.4516 86.409 72.4385C86.409 75.4019 84.0051 77.8043 81.0397 77.8043C78.0743 77.8043 75.6704 75.4019 75.6704 72.4385C75.6704 65.669 76.7497 59.0918 78.6395 52.7694C72.654 53.4498 66.5743 54.8873 61.4371 57.0138C53.9456 60.1149 47.1386 64.6602 41.4049 70.3902C35.6711 76.1202 31.1229 82.9227 28.0198 90.4093C24.9167 97.896 23.3196 105.92 23.3196 114.024C23.3196 122.127 24.9167 130.151 28.0198 137.638C31.1229 145.124 35.6711 151.927 41.4049 157.657C47.1386 163.387 53.9456 167.932 61.4371 171.033C69.3742 174.319 73.291 175.73 81.0397 175.73H86.0839L90.1109 220.244H206.201L210.228 175.73Z" fill="white"/>
<path d="M80.5905 184.038C82.1953 186.459 85.4265 187.156 87.8817 185.644C87.9037 185.632 87.9437 185.611 88.0033 185.582C88.2125 185.479 88.6582 185.274 89.4048 185C90.9018 184.45 93.5753 183.631 97.921 182.787C99.3075 182.517 100.86 182.246 102.593 181.98L105.214 220.608C105.414 223.564 107.975 225.799 110.934 225.598C113.893 225.398 116.128 222.839 115.928 219.882L113.269 180.692C120.903 179.981 130.631 179.454 142.951 179.349C142.844 179.772 142.787 180.216 142.787 180.672V220.245C142.787 223.208 145.191 225.611 148.156 225.611C151.121 225.611 153.525 223.208 153.525 220.245V180.672C153.525 180.22 153.47 179.782 153.364 179.363C165.767 179.501 175.481 180.071 183.034 180.821L180.384 219.882C180.184 222.839 182.419 225.398 185.378 225.598C188.337 225.799 190.898 223.564 191.098 220.608L193.705 182.19C194.914 182.388 196.026 182.588 197.049 182.787C201.395 183.631 204.068 184.45 205.565 185C206.312 185.274 206.879 185.541 207.088 185.644C207.148 185.673 207.066 185.632 207.088 185.644C209.543 187.156 212.775 186.459 214.379 184.038C216.017 181.567 215.341 178.238 212.869 176.601L209.927 181.038C212.869 176.601 212.864 176.598 212.859 176.595L212.849 176.588L212.828 176.575L212.784 176.546C212.753 176.526 212.719 176.505 212.683 176.483C212.61 176.438 212.527 176.389 212.432 176.335C212.242 176.226 212.005 176.099 211.715 175.956C211.135 175.67 210.338 175.32 209.27 174.927C207.139 174.144 203.898 173.185 199.099 172.252C189.515 170.39 173.547 168.599 147.485 168.599C121.422 168.599 105.454 170.39 95.8708 172.252C91.072 173.185 87.8308 174.144 85.6994 174.927C84.6317 175.32 83.8347 175.67 83.2547 175.956C82.9645 176.099 82.7276 176.226 82.5378 176.335C82.4428 176.389 82.3595 176.438 82.287 176.483C82.2508 176.505 82.2173 176.526 82.1863 176.546L82.1419 176.575L82.1211 176.588L82.111 176.595C82.1061 176.598 82.1013 176.601 85.0424 181.038L82.1012 176.601C79.6291 178.238 78.9528 181.567 80.5905 184.038Z" fill="#2F394A"/>
<path d="M50.1661 263.171C50.1661 239.464 69.3975 220.245 93.1206 220.245H203.192C226.915 220.245 246.146 239.464 246.146 263.171V302.073C246.146 325.781 226.915 345 203.192 345H93.1206C69.3975 345 50.1661 325.781 50.1661 302.073V263.171Z" fill="#E7C6A4"/>
<path fill-rule="evenodd" clip-rule="evenodd" d="M203.192 230.976H93.1206C75.3283 230.976 60.9048 245.391 60.9048 263.171V302.073C60.9048 319.854 75.3283 334.268 93.1206 334.268H203.192C220.984 334.268 235.407 319.854 235.407 302.073V263.171C235.407 245.391 220.984 230.976 203.192 230.976ZM93.1206 220.245C69.3975 220.245 50.1661 239.464 50.1661 263.171V302.073C50.1661 325.781 69.3975 345 93.1206 345H203.192C226.915 345 246.146 325.781 246.146 302.073V263.171C246.146 239.464 226.915 220.245 203.192 220.245H93.1206Z" fill="#2F394A"/>
<path d="M115.94 293.354C121.871 293.354 126.679 288.549 126.679 282.622C126.679 276.696 121.871 271.891 115.94 271.891C110.009 271.891 105.202 276.696 105.202 282.622C105.202 288.549 110.009 293.354 115.94 293.354Z" fill="#2F394A"/>
<path d="M180.372 293.354C186.303 293.354 191.111 288.549 191.111 282.622C191.111 276.696 186.303 271.891 180.372 271.891C174.441 271.891 169.633 276.696 169.633 282.622C169.633 288.549 174.441 293.354 180.372 293.354Z" fill="#2F394A"/>
</svg>
