<svg width="48" height="48" viewBox="0 0 132 126" fill="none" xmlns="http://www.w3.org/2000/svg">
<g filter="url(#filter0_d_13_151)">
<path d="M4 90.2662C4 89.5147 4.50989 88.9054 5.1389 88.9054H16.5279C19.2829 88.9054 21.5809 91.243 22.1085 94.3486H26.3225C27.0773 94.3486 27.6892 94.9579 27.6892 95.7094C27.6892 96.461 27.0773 97.0702 26.3225 97.0702H22.1085C21.5809 100.176 19.2829 102.513 16.5279 102.513H5.1389C4.50989 102.513 4 101.904 4 101.153C4 100.401 4.50989 99.7918 5.1389 99.7918H14.6297C15.2588 99.7918 15.7687 99.1826 15.7687 98.431C15.7687 97.6795 15.2588 97.0702 14.6297 97.0702H5.1389C4.50989 97.0702 4 96.461 4 95.7094C4 94.9579 4.50989 94.3486 5.1389 94.3486H14.6297C15.2588 94.3486 15.7687 93.7394 15.7687 92.9878C15.7687 92.2363 15.2588 91.627 14.6297 91.627H5.1389C4.50989 91.627 4 91.0178 4 90.2662Z" fill="#2F394A"/>
<path d="M116.55 102.513C120.339 102.513 127.913 99.4672 127.913 95.7094C127.913 91.9517 120.339 88.9054 116.55 88.9054C113.231 88.9054 110.463 91.2429 109.827 94.3486H105.59C104.835 94.3486 104.223 94.9579 104.223 95.7094C104.223 96.461 104.835 97.0702 105.59 97.0702H109.827C110.463 100.176 113.231 102.513 116.55 102.513Z" fill="#2F394A"/>
<path d="M39.9893 67.2852C29.6473 65.5576 21.7669 56.6019 21.7669 45.8135C21.7669 33.7888 31.5571 24.0408 43.6338 24.0408C43.9536 24.0408 44.2718 24.0476 44.5882 24.0611C44.5595 23.6044 44.5449 23.1439 44.5449 22.68C44.5449 10.6552 54.3351 0.907198 66.4119 0.907198C78.4886 0.907198 88.2788 10.6552 88.2788 22.68C88.2788 23.1439 88.2642 23.6044 88.2355 24.0611C88.552 24.0476 88.8701 24.0408 89.1899 24.0408C101.267 24.0408 111.057 33.7888 111.057 45.8135C111.057 56.6019 103.176 65.5576 92.8344 67.2852V74.3903H39.9893V67.2852Z" fill="white"/>
<path d="M29.5114 88.9054C29.5114 82.8931 34.4065 78.0191 40.4449 78.0191H91.9233C97.9617 78.0191 102.857 82.8931 102.857 88.9054V102.513C102.857 108.526 97.9617 113.4 91.9233 113.4H40.4449C34.4065 113.4 29.5114 108.526 29.5114 102.513V88.9054Z" fill="#D5C6A0"/>
<path d="M49.5561 99.3382C51.5689 99.3382 53.2006 97.7135 53.2006 95.7094C53.2006 93.7053 51.5689 92.0806 49.5561 92.0806C47.5433 92.0806 45.9116 93.7053 45.9116 95.7094C45.9116 97.7135 47.5433 99.3382 49.5561 99.3382Z" fill="#2F394A"/>
<path d="M86.9121 95.7094C86.9121 97.7135 85.2804 99.3382 83.2676 99.3382C81.2548 99.3382 79.6231 97.7135 79.6231 95.7094C79.6231 93.7053 81.2548 92.0806 83.2676 92.0806C85.2804 92.0806 86.9121 93.7053 86.9121 95.7094Z" fill="#2F394A"/>
<path fill-rule="evenodd" clip-rule="evenodd" d="M36.3448 67.8267C27.3396 64.7562 20.8558 56.153 20.8558 46.02C20.8558 33.9315 30.0838 24.0202 41.8119 23.0826C42.8151 23.0024 43.6264 22.1948 43.7036 21.1957C44.6193 9.33572 54.4364 0 66.4119 0C78.3874 0 88.2044 9.33572 89.1202 21.1957C89.1973 22.1948 90.0087 23.0024 91.0118 23.0826C102.74 24.0202 111.968 33.9315 111.968 46.02C111.968 56.153 105.484 64.7562 96.4789 67.8267V75.1131C102.299 77.0178 106.501 82.473 106.501 88.9054V102.513C106.501 110.53 99.9745 117.029 91.9233 117.029H40.4449C32.3937 117.029 25.8669 110.53 25.8669 102.513V88.9054C25.8669 82.3064 30.2897 76.7358 36.3448 74.9722V67.8267ZM85.6169 23.01V24.805C85.6169 25.8071 86.4327 26.6194 87.4391 26.6194H89.1899C99.7966 26.6194 108.395 35.3054 108.395 46.02C108.395 54.4236 103.106 61.5792 95.7069 64.2751C89.2018 53.57 43.6219 53.57 37.1168 64.2751C29.7179 61.5792 24.4288 54.4236 24.4288 46.02C24.4288 35.3054 33.0272 26.6194 43.6338 26.6194H45.3846C46.391 26.6194 47.2068 25.8071 47.2068 24.805V23.01C47.2068 12.2954 55.8052 3.60941 66.4119 3.60941C77.0185 3.60941 85.6169 12.2954 85.6169 23.01ZM91.9233 78.0191H40.4449C34.4065 78.0191 29.5114 82.8931 29.5114 88.9054V102.513C29.5114 108.526 34.4065 113.4 40.4449 113.4H91.9233C97.9617 113.4 102.857 108.526 102.857 102.513V88.9054C102.857 82.8931 97.9617 78.0191 91.9233 78.0191ZM92.8344 74.0218H39.9893V66.9483C39.9893 66.5968 40.1289 65.9759 41.2347 65.0762C42.3807 64.1439 44.2461 63.2023 46.8445 62.3802C52.008 60.7465 59.1229 59.8751 66.4119 59.8751C73.7008 59.8751 80.8157 60.7465 85.9793 62.3802C88.5777 63.2023 90.443 64.1439 91.589 65.0762C92.6948 65.9759 92.8344 66.5968 92.8344 66.9483V74.0218Z" fill="#2F394A"/>
</g>
<defs>
<filter id="filter0_d_13_151" x="0" y="0" width="131.913" height="125.029" filterUnits="userSpaceOnUse" color-interpolation-filters="sRGB">
<feFlood flood-opacity="0" result="BackgroundImageFix"/>
<feColorMatrix in="SourceAlpha" type="matrix" values="0 0 0 0 0 0 0 0 0 0 0 0 0 0 0 0 0 0 127 0" result="hardAlpha"/>
<feOffset dy="4"/>
<feGaussianBlur stdDeviation="2"/>
<feComposite in2="hardAlpha" operator="out"/>
<feColorMatrix type="matrix" values="0 0 0 0 0 0 0 0 0 0 0 0 0 0 0 0 0 0 0.25 0"/>
<feBlend mode="normal" in2="BackgroundImageFix" result="effect1_dropShadow_13_151"/>
<feBlend mode="normal" in="SourceGraphic" in2="effect1_dropShadow_13_151" result="shape"/>
</filter>
</defs>
</svg>
